<?xml version="1.0" standalone="no"?><!DOCTYPE svg PUBLIC "-//W3C//DTD SVG 1.1//EN" "http://www.w3.org/Graphics/SVG/1.1/DTD/svg11.dtd"><svg class="icon" width="200px" height="200.00px" viewBox="0 0 1024 1024" version="1.1" xmlns="http://www.w3.org/2000/svg"><path d="M809.3 1024H214.7c-71.3 0-129.4-58-129.4-129.4V129.4C85.3 58 143.4 0 214.7 0h594.6c71.3 0 129.4 58 129.4 129.4v765.3c0 71.3-58.1 129.3-129.4 129.3zM214.7 85.3c-24.3 0-44 19.8-44 44v765.3c0 24.3 19.8 44 44 44h594.6c24.3 0 44-19.8 44-44V129.4c0-24.3-19.8-44-44-44H214.7z" fill="#3688FF" /><path d="M469.3 512c-6 0-12.1-1.3-17.7-3.9-15.2-6.9-24.9-22.1-24.9-38.8V42.7c0-23.6 19.1-42.7 42.7-42.7S512 19.1 512 42.7v333.4l52.9-45.7c15.6-13.5 38.6-13.9 54.6-1l63.2 50.8V42.7c0-23.6 19.1-42.7 42.7-42.7S768 19.1 768 42.7v426.7c0 16.4-9.4 31.4-24.2 38.5s-32.4 5.1-45.2-5.2l-104.8-84.4-96.5 83.4c-8 6.7-17.9 10.3-28 10.3z" fill="#5F6379" /></svg>