<?xml version="1.0" standalone="no"?><!DOCTYPE svg PUBLIC "-//W3C//DTD SVG 1.1//EN" "http://www.w3.org/Graphics/SVG/1.1/DTD/svg11.dtd"><svg class="icon" width="200px" height="200.00px" viewBox="0 0 1024 1024" version="1.1" xmlns="http://www.w3.org/2000/svg"><path d="M512 1024C229.7 1024 0 794.3 0 512S229.7 0 512 0s512 229.7 512 512-229.7 512-512 512z m0-938.7C276.7 85.3 85.3 276.7 85.3 512S276.7 938.7 512 938.7 938.7 747.3 938.7 512 747.3 85.3 512 85.3z" fill="#3688FF" /><path d="M632.7 675.3c-10.9 0-21.8-4.2-30.2-12.5L361.1 421.5c-16.7-16.7-16.7-43.7 0-60.3 16.7-16.7 43.7-16.7 60.3 0l241.4 241.4c16.7 16.7 16.7 43.7 0 60.3-8.3 8.3-19.2 12.4-30.1 12.4z" fill="#5F6379" /><path d="M391.3 675.3c-10.9 0-21.8-4.2-30.2-12.5-16.7-16.7-16.7-43.7 0-60.3l241.4-241.4c16.7-16.7 43.7-16.7 60.3 0 16.7 16.7 16.7 43.7 0 60.3L421.5 662.8c-8.4 8.4-19.3 12.5-30.2 12.5z" fill="#5F6379" /></svg>