<?xml version="1.0" standalone="no"?><!DOCTYPE svg PUBLIC "-//W3C//DTD SVG 1.1//EN" "http://www.w3.org/Graphics/SVG/1.1/DTD/svg11.dtd"><svg class="icon" width="200px" height="200.00px" viewBox="0 0 1024 1024" version="1.1" xmlns="http://www.w3.org/2000/svg"><path d="M512 1024C229.7 1024 0 794.3 0 512S229.7 0 512 0s512 229.7 512 512-229.7 512-512 512z m0-938.7C276.7 85.3 85.3 276.7 85.3 512S276.7 938.7 512 938.7 938.7 747.3 938.7 512 747.3 85.3 512 85.3z" fill="#3688FF" /><path d="M292.1 685.5c-7 0-14.1-1.8-20.5-5.2-13.6-7.5-22.1-21.8-22.1-37.4V381.2c0-15.6 8.5-29.9 22.1-37.4 13.6-7.5 30.3-7 43.5 1.4L520.2 476c12.3 7.8 19.7 21.4 19.7 36 0 14.6-7.4 28.1-19.7 36L315 678.8c-7 4.4-15 6.7-22.9 6.7zM334.7 459v106l83.2-53-83.2-53z" fill="#5F6379" /><path d="M505.4 685.5c-7 0-14.1-1.8-20.5-5.2-13.6-7.5-22.1-21.8-22.1-37.4V381.2c0-15.6 8.5-29.9 22.1-37.4 13.6-7.5 30.3-7 43.5 1.4L733.5 476c12.3 7.8 19.7 21.4 19.7 36 0 14.6-7.4 28.1-19.7 36L528.3 678.8c-6.9 4.4-14.9 6.7-22.9 6.7zM548.1 459v106l83.2-53-83.2-53z" fill="#5F6379" /><path d="M731.9 672c-23.6 0-42.7-19.1-42.7-42.7V394.7c0-23.6 19.1-42.7 42.7-42.7s42.7 19.1 42.7 42.7v234.7c0 23.5-19.1 42.6-42.7 42.6z" fill="#5F6379" /></svg>