<?xml version="1.0" standalone="no"?><!DOCTYPE svg PUBLIC "-//W3C//DTD SVG 1.1//EN" "http://www.w3.org/Graphics/SVG/1.1/DTD/svg11.dtd"><svg class="icon" width="200px" height="200.00px" viewBox="0 0 1024 1024" version="1.1" xmlns="http://www.w3.org/2000/svg"><path d="M981.4 502.3c-9.1 0-18.3-2.9-26-8.9L539 171.7c-15.3-11.8-36.7-11.8-52 0L70.7 493.4c-18.6 14.4-45.4 10.9-59.7-7.7-14.4-18.6-11-45.4 7.7-59.7L435 104.3c46-35.5 110.2-35.5 156.1 0L1007.5 426c18.6 14.4 22 41.1 7.7 59.7-8.5 10.9-21.1 16.6-33.8 16.6z" fill="#5F6379" /><path d="M810.4 981.3H215.7c-70.8 0-128.4-57.6-128.4-128.4V534.2c0-23.5 19.1-42.6 42.6-42.6s42.6 19.1 42.6 42.6v318.7c0 23.8 19.4 43.2 43.2 43.2h594.8c23.8 0 43.2-19.4 43.2-43.2V534.2c0-23.5 19.1-42.6 42.6-42.6s42.6 19.1 42.6 42.6v318.7c-0.1 70.8-57.7 128.4-128.5 128.4z" fill="#3688FF" /></svg>