<?xml version="1.0" standalone="no"?><!DOCTYPE svg PUBLIC "-//W3C//DTD SVG 1.1//EN" "http://www.w3.org/Graphics/SVG/1.1/DTD/svg11.dtd"><svg class="icon" width="200px" height="200.00px" viewBox="0 0 1024 1024" version="1.1" xmlns="http://www.w3.org/2000/svg"><path d="M523.9 986.4l-19.1-9.5c-16.6-8.3-407.6-207.7-407.6-550.2C97.2 191.4 288.6 0 523.9 0s426.7 191.4 426.7 426.7c0 342.4-390.9 541.8-407.6 550.2l-19.1 9.5z m0-901.1c-188.2 0-341.3 153.1-341.3 341.3 0 250.3 266.8 420.6 341.3 463.4 74.6-42.7 341.3-213.1 341.3-463.4 0-188.1-153.1-341.3-341.3-341.3z" fill="#3688FF" /><path d="M523.9 533.3c-70.6 0-128-57.4-128-128s57.4-128 128-128 128 57.4 128 128-57.5 128-128 128z m0-170.6c-23.5 0-42.7 19.1-42.7 42.7s19.1 42.7 42.7 42.7c23.5 0 42.7-19.1 42.7-42.7s-19.2-42.7-42.7-42.7z" fill="#5F6379" /></svg>