<?xml version="1.0" standalone="no"?><!DOCTYPE svg PUBLIC "-//W3C//DTD SVG 1.1//EN" "http://www.w3.org/Graphics/SVG/1.1/DTD/svg11.dtd"><svg class="icon" width="200px" height="200.00px" viewBox="0 0 1024 1024" version="1.1" xmlns="http://www.w3.org/2000/svg"><path d="M829.4 1024H194.6c-60.3 0-109.3-49-109.3-109.3v-464c0-60.3 49-109.3 109.3-109.3h634.7c60.3 0 109.3 49 109.3 109.3v464c0.1 60.3-49 109.3-109.2 109.3zM194.6 426.7c-13.2 0-24 10.8-24 24v464c0 13.2 10.8 24 24 24h634.7c13.2 0 24-10.8 24-24v-464c0-13.2-10.8-24-24-24H194.6z" fill="#3688FF" /><path d="M725.3 426.7c-23.6 0-42.7-19.1-42.7-42.7V256c0-94.1-76.6-170.7-170.7-170.7S341.3 161.9 341.3 256v128c0 23.6-19.1 42.7-42.7 42.7S256 407.6 256 384V256C256 114.8 370.8 0 512 0s256 114.8 256 256v128c0 23.6-19.1 42.7-42.7 42.7zM512 810.7c-23.6 0-42.7-19.1-42.7-42.7V597.3c0-23.6 19.1-42.7 42.7-42.7s42.7 19.1 42.7 42.7V768c0 23.6-19.1 42.7-42.7 42.7z" fill="#5F6379" /></svg>