<?xml version="1.0" standalone="no"?><!DOCTYPE svg PUBLIC "-//W3C//DTD SVG 1.1//EN" "http://www.w3.org/Graphics/SVG/1.1/DTD/svg11.dtd"><svg class="icon" width="200px" height="200.00px" viewBox="0 0 1024 1024" version="1.1" xmlns="http://www.w3.org/2000/svg"><path d="M596.3 980.9c-22.7 0-45.2-6.2-65.2-17.9l-2.4-1.5-110.2-74.9c-18.1-12.3-37.2-23.3-56.8-32.7-19.6-9.4-40-17.4-60.8-23.8-20.7-6.4-42.1-11.2-63.6-14.5s-43.5-4.9-65.4-4.9c-17.5 0-34.4-3.4-50.4-10.2-15.4-6.5-29.2-15.8-41-27.6s-21.2-25.7-27.7-41.1c-6.7-15.9-10.2-32.8-10.2-50.3V342.6c0-17.5 3.4-34.4 10.2-50.4 6.5-15.4 15.8-29.2 27.6-41 11.9-11.9 25.7-21.2 41.1-27.7 15.9-6.7 32.8-10.2 50.3-10.2 21.8 0 43.8-1.6 65.4-4.9 21.5-3.2 42.9-8.1 63.6-14.5 20.7-6.4 41.2-14.4 60.7-23.8 19.6-9.4 38.7-20.4 56.8-32.7L531.1 61c20.4-12 43.2-18.2 66.6-17.9 21.8 0.2 43.5 6.2 62.6 17.1 19.2 11 35.3 26.7 46.6 45.4 12 19.8 18.4 42.9 18.4 66.6v170c0 23.6-19.1 42.7-42.7 42.7S640 365.6 640 342.1v-170c0-8.2-2-15.8-6.1-22.4-3.8-6.3-9.3-11.7-15.9-15.4-6.5-3.7-13.9-5.8-21.2-5.9-7.5 0-14.6 1.8-21.4 5.6l-108.9 74c-21.6 14.7-44.4 27.9-67.9 39.1-23.4 11.2-47.8 20.7-72.5 28.4-24.7 7.6-50.3 13.4-76 17.3-25.8 3.9-52.1 5.9-78.1 5.9-6 0-11.7 1.1-17 3.4-5.3 2.2-10 5.4-14 9.4s-7.2 8.7-9.4 14c-2.3 5.4-3.5 11.1-3.5 17.1v338.8c0 6 1.1 11.7 3.4 17 2.2 5.3 5.4 10 9.4 14s8.7 7.2 14 9.4c5.4 2.3 11.1 3.5 17.1 3.5 26.1 0 52.3 2 78.1 5.9 25.7 3.9 51.3 9.7 76 17.3 24.8 7.6 49.2 17.2 72.6 28.4 23.4 11.2 46.3 24.4 67.9 39.1l108.9 74c6.8 3.8 14 5.4 21.4 5.6 7.3-0.1 14.7-2.1 21.3-5.9 6.5-3.7 12-9.1 15.8-15.4 4-6.7 6.1-14.2 6.1-22.4V703.3c0-23.6 19.1-42.7 42.7-42.7s42.7 19.1 42.7 42.7v148.6c0 23.7-6.4 46.7-18.4 66.6-11.2 18.6-27.3 34.3-46.5 45.3-19.3 11-40.9 16.9-62.7 17.1h-1.6z" fill="#3688FF" /><path d="M469.3 789.3c-10.9 0-21.8-4.2-30.2-12.5-16.7-16.7-16.7-43.7 0-60.3l416-416c16.7-16.7 43.7-16.7 60.3 0s16.7 43.7 0 60.3l-416 416c-8.2 8.4-19.2 12.5-30.1 12.5z" fill="#5F6379" /></svg>