<?xml version="1.0" standalone="no"?><!DOCTYPE svg PUBLIC "-//W3C//DTD SVG 1.1//EN" "http://www.w3.org/Graphics/SVG/1.1/DTD/svg11.dtd"><svg class="icon" width="200px" height="200.00px" viewBox="0 0 1024 1024" version="1.1" xmlns="http://www.w3.org/2000/svg"><path d="M511.501463 1023.000976C229.476878 1023.000976 0.000976 793.525073 0.000976 511.500488S229.476878 0 511.501463 0s511.500488 229.475902 511.500488 511.500488-229.475902 511.500488-511.500488 511.500488z m0-937.784196C276.431024 85.21678 85.217756 276.430049 85.217756 511.500488S276.431024 937.784195 511.501463 937.784195 937.785171 746.570927 937.785171 511.500488 746.571902 85.21678 511.501463 85.21678z" fill="#3688FF" /><path d="M394.315902 682.033951c-23.576976 0-42.658341-19.081366-42.658341-42.658341V383.625366c0-23.576976 19.081366-42.658341 42.658341-42.658342s42.658341 19.081366 42.658342 42.658342v255.750244c-0.099902 23.576976-19.181268 42.658341-42.658342 42.658341zM628.687024 682.033951c-23.576976 0-42.658341-19.081366-42.658341-42.658341V383.625366c0-23.576976 19.081366-42.658341 42.658341-42.658342S671.345366 360.04839 671.345366 383.625366v255.750244c0 23.576976-19.081366 42.658341-42.658342 42.658341z" fill="#5F6379" /></svg>