<?xml version="1.0" standalone="no"?><!DOCTYPE svg PUBLIC "-//W3C//DTD SVG 1.1//EN" "http://www.w3.org/Graphics/SVG/1.1/DTD/svg11.dtd"><svg class="icon" width="200px" height="200.00px" viewBox="0 0 1024 1024" version="1.1" xmlns="http://www.w3.org/2000/svg"><path d="M512 989.4c-123.1 0-238.9-47.9-326-135S51 651.5 51 528.4s47.9-238.9 135-326c17-17 44.6-17 61.6 0s17 44.6 0 61.6C177 334.7 138.1 428.6 138.1 528.4c0 99.9 38.9 193.8 109.5 264.4 70.6 70.6 164.5 109.5 264.4 109.5s193.8-38.9 264.4-109.5c70.6-70.6 109.5-164.5 109.5-264.4 0-99.9-38.9-193.8-109.5-264.4-17-17-17-44.6 0-61.6s44.6-17 61.6 0c87.1 87.1 135 202.8 135 326 0 123.1-47.9 238.9-135 326s-202.9 135-326 135z" fill="#3688FF" /><path d="M512 554.7c-23.6 0-42.7-19.1-42.7-42.7V85.3c0-23.6 19.1-42.7 42.7-42.7s42.7 19.1 42.7 42.7V512c0 23.6-19.1 42.7-42.7 42.7z" fill="#5F6379" /></svg>