<?xml version="1.0" standalone="no"?><!DOCTYPE svg PUBLIC "-//W3C//DTD SVG 1.1//EN" "http://www.w3.org/Graphics/SVG/1.1/DTD/svg11.dtd"><svg class="icon" width="200px" height="200.00px" viewBox="0 0 1024 1024" version="1.1" xmlns="http://www.w3.org/2000/svg"><path d="M902.7 896H768V768H256v128H121.3C54.4 896 0 841.6 0 774.7v-440c0-66.9 54.4-121.3 121.3-121.3h781.3c66.9 0 121.3 54.4 121.3 121.3v440c0.1 66.9-54.3 121.3-121.2 121.3z m-49.4-85.3h49.3c19.9 0 36-16.1 36-36v-440c0-19.9-16.2-36-36-36H121.3c-19.9 0-36 16.1-36 36v440c0 19.9 16.2 36 36 36h49.3v-47.3c0-44.5 36.2-80.7 80.7-80.7h521.2c44.5 0 80.7 36.2 80.7 80.7v47.3z" fill="#3688FF" /><path d="M839.6 298.7H184.4c-42.9 0-77.7-34.9-77.7-77.7v-57.9c0-42.9 34.9-77.7 77.7-77.7h655.2c42.9 0 77.7 34.9 77.7 77.7V221c0 42.8-34.8 77.7-77.7 77.7zM192 213.3h640v-42.7H192v42.7zM288 458.7h-96c-23.6 0-42.7-19.1-42.7-42.7s19.1-42.7 42.7-42.7h96c23.6 0 42.7 19.1 42.7 42.7s-19.1 42.7-42.7 42.7zM767.4 981.3H256.6c-47.4 0-86-38.6-86-86V768.6c0-47.4 38.6-86 86-86h510.7c47.4 0 86 38.6 86 86v126.7c0 47.5-38.5 86-85.9 86zM256.6 768l-0.6 127.4 511.4 0.6c0.4 0 0.6-0.3 0.6-0.6V768.6l-511.4-0.6z" fill="#5F6379" /></svg>