<?xml version="1.0" standalone="no"?><!DOCTYPE svg PUBLIC "-//W3C//DTD SVG 1.1//EN" "http://www.w3.org/Graphics/SVG/1.1/DTD/svg11.dtd"><svg class="icon" width="200px" height="200.00px" viewBox="0 0 1024 1024" version="1.1" xmlns="http://www.w3.org/2000/svg"><path d="M596.4 981c-22.5 0-44.9-6-65.3-18l-2.4-1.5-110.3-75c-73-49.6-158.3-75.9-246.6-75.9-71.3 0-129.2-58-129.2-129.2V342.6c0-71.3 58-129.3 129.2-129.3 88.3 0 173.5-26.2 246.6-75.9L531.1 61c40.3-23.7 88.7-24 129.3-0.8 40.6 23.3 64.9 65.1 64.9 111.9v679.8c0 46.8-24.3 88.6-64.9 111.9-20.1 11.5-42 17.2-64 17.2z m-21-91c19.2 10.8 36.2 3.4 42.7-0.3 6.6-3.8 21.9-15 21.9-37.8V172.1c0-22.8-15.4-34-21.9-37.8-6.5-3.7-23.5-11-42.7-0.3l-109 74c-87.2 59.3-189.1 90.6-294.5 90.6-24.2 0-43.9 19.7-43.9 43.9v338.8c0 24.2 19.7 43.9 43.9 43.9 105.5 0 207.3 31.4 294.5 90.6l109 74.2z" fill="#3688FF" /><path d="M901.1 817.1c-8.2 0-16.5-2.4-23.8-7.3-19.5-13.2-24.7-39.7-11.5-59.2 15.5-22.9 28.7-47.3 39.4-72.5 10.9-25.7 19.2-52.6 24.8-80 5.8-28.1 8.7-57.1 8.7-86 0-29-2.9-57.9-8.7-86-5.6-27.4-14-54.3-24.8-80-10.7-25.2-23.9-49.6-39.4-72.5-13.2-19.5-8-46 11.5-59.2 19.5-13.2 46-8 59.2 11.5 18.5 27.4 34.4 56.7 47.2 87 13.1 30.9 23.1 63.3 29.8 96.2 6.9 33.7 10.4 68.4 10.4 103.1s-3.5 69.4-10.4 103.1c-6.7 32.9-16.8 65.2-29.8 96.2-12.8 30.2-28.7 59.5-47.2 87-8.2 12-21.6 18.6-35.4 18.6z" fill="#5F6379" /></svg>