<?xml version="1.0" encoding="UTF-8"?>
<svg width="512px" height="512px" viewBox="0 0 512 512" version="1.1" xmlns="http://www.w3.org/2000/svg" xmlns:xlink="http://www.w3.org/1999/xlink">
    <!-- Generator: Sketch 47 (45396) - http://www.bohemiancoding.com/sketch -->
    <title>icon</title>
    <desc>Created with Sketch.</desc>
    <defs></defs>
    <g id="Page-1" stroke="none" stroke-width="1" fill="none" fill-rule="evenodd">
        <g id="icon" fill="#000000">
            <path d="M207.973343,73.1660915 C212.321531,69.517198 227.351764,69.0613287 249.338549,95.2339651 C268.489723,84.0663939 303.569295,80.9830942 326.906316,94.9913763 C339.986394,77.5131403 354.917575,68.0093204 361.872796,71.6953707 C368.828016,75.381421 349.907748,131.409216 364.329176,147.922091 C390.934917,181.049936 426.965949,273.221284 424.881866,353.793189 C423.406171,410.844445 379.485111,478.281398 289.377821,478.281398 C233.688831,478.281398 170.478526,468.228941 125.402498,405.799987 C80.3264713,343.371033 125.686043,211.531689 136.191092,181.262016 C146.696141,150.992344 168.628205,94.9913772 150.367231,76.8860713 C132.106257,58.7807654 87,78.0245011 87,47.8284469 C87,17.6323926 169.812723,33.425674 184.017752,71.6953705 C198.22278,109.965067 178.367544,151.46249 168.628207,181.262018 C158.888871,211.061547 114.514657,324.536333 155.914909,382.253572 C141.297847,262.369986 189.887178,179.227133 216.733941,146.814426 C227.063118,133.578591 203.625155,76.814985 207.973343,73.1660915 Z" id="Path-1"></path>
        </g>
    </g>
</svg>